<?xml version="1.0" standalone="no"?>
<svg xmlns:xlink="http://www.w3.org/1999/xlink" id="wave" style="transform:rotate(180deg); transition: 0.3s" viewBox="0 0 1440 100" version="1.1" xmlns="http://www.w3.org/2000/svg"><defs><linearGradient id="sw-gradient-0" x1="0" x2="0" y1="1" y2="0"><stop stop-color="rgba(11, 36, 108, 1)" offset="0%"/><stop stop-color="rgba(11, 36, 108, 1)" offset="100%"/></linearGradient></defs><path style="transform:translate(0, 0px); opacity:1" fill="url(#sw-gradient-0)" d="M0,50L48,46.7C96,43,192,37,288,31.7C384,27,480,23,576,31.7C672,40,768,60,864,61.7C960,63,1056,47,1152,38.3C1248,30,1344,30,1440,35C1536,40,1632,50,1728,51.7C1824,53,1920,47,2016,40C2112,33,2208,27,2304,25C2400,23,2496,27,2592,28.3C2688,30,2784,30,2880,40C2976,50,3072,70,3168,75C3264,80,3360,70,3456,60C3552,50,3648,40,3744,36.7C3840,33,3936,37,4032,35C4128,33,4224,27,4320,26.7C4416,27,4512,33,4608,35C4704,37,4800,33,4896,31.7C4992,30,5088,30,5184,30C5280,30,5376,30,5472,40C5568,50,5664,70,5760,66.7C5856,63,5952,37,6048,36.7C6144,37,6240,63,6336,66.7C6432,70,6528,50,6624,45C6720,40,6816,50,6864,55L6912,60L6912,100L6864,100C6816,100,6720,100,6624,100C6528,100,6432,100,6336,100C6240,100,6144,100,6048,100C5952,100,5856,100,5760,100C5664,100,5568,100,5472,100C5376,100,5280,100,5184,100C5088,100,4992,100,4896,100C4800,100,4704,100,4608,100C4512,100,4416,100,4320,100C4224,100,4128,100,4032,100C3936,100,3840,100,3744,100C3648,100,3552,100,3456,100C3360,100,3264,100,3168,100C3072,100,2976,100,2880,100C2784,100,2688,100,2592,100C2496,100,2400,100,2304,100C2208,100,2112,100,2016,100C1920,100,1824,100,1728,100C1632,100,1536,100,1440,100C1344,100,1248,100,1152,100C1056,100,960,100,864,100C768,100,672,100,576,100C480,100,384,100,288,100C192,100,96,100,48,100L0,100Z"/></svg>