<?xml version="1.0" standalone="no"?>
<svg xmlns:xlink="http://www.w3.org/1999/xlink" id="wave" style="transform:rotate(0deg); transition: 0.3s" viewBox="0 0 1440 240" version="1.1" xmlns="http://www.w3.org/2000/svg"><defs><linearGradient id="sw-gradient-0" x1="0" x2="0" y1="1" y2="0"><stop stop-color="rgba(11, 36, 108, 1)" offset="0%"/><stop stop-color="rgba(11, 36, 108, 1)" offset="100%"/></linearGradient></defs><path style="transform:translate(0, 0px); opacity:1" fill="url(#sw-gradient-0)" d="M0,120L48,112C96,104,192,88,288,76C384,64,480,56,576,76C672,96,768,144,864,148C960,152,1056,112,1152,92C1248,72,1344,72,1440,84C1536,96,1632,120,1728,124C1824,128,1920,112,2016,96C2112,80,2208,64,2304,60C2400,56,2496,64,2592,68C2688,72,2784,72,2880,96C2976,120,3072,168,3168,180C3264,192,3360,168,3456,144C3552,120,3648,96,3744,88C3840,80,3936,88,4032,84C4128,80,4224,64,4320,64C4416,64,4512,80,4608,84C4704,88,4800,80,4896,76C4992,72,5088,72,5184,72C5280,72,5376,72,5472,96C5568,120,5664,168,5760,160C5856,152,5952,88,6048,88C6144,88,6240,152,6336,160C6432,168,6528,120,6624,108C6720,96,6816,120,6864,132L6912,144L6912,240L6864,240C6816,240,6720,240,6624,240C6528,240,6432,240,6336,240C6240,240,6144,240,6048,240C5952,240,5856,240,5760,240C5664,240,5568,240,5472,240C5376,240,5280,240,5184,240C5088,240,4992,240,4896,240C4800,240,4704,240,4608,240C4512,240,4416,240,4320,240C4224,240,4128,240,4032,240C3936,240,3840,240,3744,240C3648,240,3552,240,3456,240C3360,240,3264,240,3168,240C3072,240,2976,240,2880,240C2784,240,2688,240,2592,240C2496,240,2400,240,2304,240C2208,240,2112,240,2016,240C1920,240,1824,240,1728,240C1632,240,1536,240,1440,240C1344,240,1248,240,1152,240C1056,240,960,240,864,240C768,240,672,240,576,240C480,240,384,240,288,240C192,240,96,240,48,240L0,240Z"/></svg>